<?xml version="1.0" encoding="utf-8"?>
<svg xmlns="http://www.w3.org/2000/svg" viewBox="0 0 500 500" xmlns:bx="https://boxy-svg.com" width="500px" height="500px"><defs><clipPath id="clip0"><rect width="2599" height="1980" y="0" x="0"/></clipPath></defs><g transform="matrix(0.338933, 0, 0, 0.338933, -198.085876, -71.276268)" style=""><rect x="907.641" y="530.993" width="847.584" height="836.84" style="fill: rgb(255, 255, 255);" clip-path="url(#clip0)"/><path d="M 945 950.5 C 945 742.565 1113.56 574 1321.5 574 C 1529.44 574 1698 742.565 1698 950.5 C 1698 1158.44 1529.44 1327 1321.5 1327 C 1113.56 1327 945 1158.44 945 950.5 Z" fill-rule="evenodd" style="fill: rgb(255, 0, 0);" clip-path="url(#clip0)"/><rect x="918.385" y="754.827" width="847.584" height="391.56" style="fill: rgb(255, 255, 255);" clip-path="url(#clip0)"/><path d="M 608.5 951.5 L 2014.44 951.729" stroke-width="320.833" stroke-linejoin="round" stroke-miterlimit="10" fill="none" fill-rule="evenodd" style="stroke: rgb(84, 141, 212);" clip-path="url(#clip0)"/><path d="M 743.5 948.5 C 743.5 629.832 1002.06 371.5 1321 371.5 C 1639.94 371.5 1898.5 629.832 1898.5 948.5 C 1898.5 1267.17 1639.94 1525.5 1321 1525.5 C 1002.06 1525.5 743.5 1267.17 743.5 948.5 Z" stroke-width="320.833" stroke-linejoin="round" stroke-miterlimit="10" fill="none" fill-rule="evenodd" style="stroke: rgb(84, 141, 212);" clip-path="url(#clip0)"/><text fill="#FFFFFF" font-family="Verdana,Verdana_MSFontService,sans-serif" font-weight="700" font-size="275" style="white-space: pre; font-size: 275px;" x="913.432" y="1046.36" clip-path="url(#clip0)">M C M</text></g></svg>